<svg width="1093" height="358" viewBox="0 0 1093 358" fill="none" xmlns="http://www.w3.org/2000/svg">
<g clip-path="url(#clip0_35_12)">
<path d="M1092.71 357.81L1092.71 0.80957L0.705078 0.809523L0.705063 357.81L1092.71 357.81Z" fill="#E02A26"/>
<path d="M476.458 123.47C460.35 123.47 441.999 130.927 430.787 145.888L430.787 125.803L392.3 125.803L392.3 265.849L430.787 265.849L430.787 186.149C430.787 171.783 441.907 156.548 462.501 156.548C478.426 156.548 494.901 167.62 494.901 186.149L494.901 265.849L533.388 265.849L533.388 179.012C533.388 146.803 510.323 123.424 476.504 123.424" fill="white"/>
<path d="M806.731 125.803L771.996 221.195L737.216 125.803L693.238 125.803L750.9 265.849L793.047 265.849L850.709 125.803L806.731 125.803Z" fill="white"/>
<path d="M277.48 167.986C284.024 159.202 294.458 154.032 307.089 154.032C320.955 154.032 331.481 161.947 336.926 173.613L269.7 201.476C267.87 187.156 271.531 175.992 277.526 167.94L277.48 167.986ZM351.342 222.796C335.142 234.783 325.898 237.62 311.116 237.62C297.845 237.62 287.411 233.502 280.089 226.274L378.434 185.509C376.283 170.319 370.517 156.731 361.639 146.391C348.733 131.385 329.604 123.424 306.311 123.424C264.026 123.424 232.129 154.626 232.129 195.849C232.129 237.071 264.117 268.228 310.567 268.228C336.606 268.228 363.24 255.875 375.688 241.463L351.342 222.751L351.342 222.796Z" fill="white"/>
<path d="M228.468 230.574L141.06 230.574L141.06 83.9404L102.07 83.9404L102.07 265.849L228.468 265.849L228.468 230.574Z" fill="white"/>
<path d="M919.766 156.411C898.303 156.411 882.698 172.698 882.698 195.849C882.698 218.999 899.219 235.287 920.315 235.287C941.412 235.287 957.384 218.587 957.384 195.849C957.384 173.11 940.863 156.411 919.766 156.411ZM919.766 268.228C877.71 268.228 844.715 236.888 844.715 195.849C844.715 154.81 877.893 123.47 920.27 123.47C962.646 123.47 995.275 154.81 995.275 195.849C995.275 236.888 962.097 268.228 919.72 268.228" fill="white"/>
<path d="M623.587 156.411C602.079 156.411 586.519 172.698 586.519 195.849C586.519 218.999 603.04 235.287 624.137 235.287C645.233 235.287 661.205 218.587 661.205 195.849C661.205 173.11 644.684 156.411 623.587 156.411ZM623.587 268.228C581.531 268.228 548.536 236.888 548.536 195.849C548.536 154.81 581.714 123.47 624.091 123.47C666.468 123.47 699.097 154.81 699.097 195.849C699.097 236.888 665.918 268.228 623.542 268.228" fill="white"/>
</g>
<defs>
<clipPath id="clip0_35_12">
<rect width="357" height="1092" fill="white" transform="translate(1092.71 0.80957) rotate(90)"/>
</clipPath>
</defs>
</svg>
